P2
#roomba map
50 50
255
128 128 128 128 128 128 128 128 128 128 128 128 128 128 128 128 128 128 128 128 128 128 128 128 128 128 128 128 128 128 128 128 128 128 128 128 128 128 128 128 128 128 128 128 128 128 128 128 128 128 
128 0 255 255 255 255 255 255 3 1 255 255 255 255 255 255 255 255 255 255 255 255 255 255 255 255 255 255 5 255 4 255 255 255 255 255 255 255 255 255 255 255 255 255 255 255 255 255 255 128 
128 255 255 255 255 255 255 255 3 255 255 255 255 1 255 255 255 255 255 255 255 255 255 255 255 255 255 255 255 255 255 4 255 255 255 255 5 255 255 255 255 255 3 3 255 255 255 255 255 128 
128 2 255 1 255 255 128 255 255 128 255 255 255 255 255 255 255 255 255 255 255 255 255 255 255 255 255 255 2 4 255 255 255 255 255 255 255 255 255 2 255 255 255 255 255 255 255 255 255 128 
128 255 255 255 3 255 255 255 255 255 255 255 255 255 255 255 255 255 255 255 255 255 255 255 255 255 5 255 255 255 255 255 255 255 255 255 255 255 255 3 255 255 255 255 255 255 255 255 255 128 
128 255 255 255 255 255 255 255 255 255 255 255 255 255 255 255 255 255 255 255 255 128 255 255 255 255 255 255 255 255 255 255 255 255 255 255 255 255 255 255 255 255 255 255 255 255 255 255 255 128 
128 255 255 255 255 255 255 255 255 255 255 255 255 255 255 255 255 4 255 255 255 255 255 255 255 255 255 255 255 255 255 255 255 255 255 255 255 3 255 255 255 5 255 255 255 255 255 255 255 128 
128 255 255 255 255 255 255 255 255 128 128 255 255 255 255 255 255 255 255 255 255 255 255 255 255 255 255 255 255 255 255 255 255 255 255 255 255 255 255 255 255 255 255 4 255 255 255 255 255 128 
128 255 255 255 255 255 255 255 255 255 255 255 255 255 255 5 255 255 255 255 255 255 255 255 255 255 255 255 255 255 255 255 255 255 255 255 255 255 255 255 255 255 255 255 255 255 255 255 255 128 
128 255 255 255 255 255 255 255 255 255 255 255 255 255 255 255 255 255 128 255 255 255 255 255 255 255 5 3 255 255 255 255 255 255 255 255 255 255 255 255 255 255 255 255 255 255 255 255 255 128 
128 255 255 255 255 255 255 255 255 255 255 255 255 255 255 255 255 255 255 255 255 255 255 255 255 255 2 255 255 255 255 255 255 255 255 255 255 255 255 255 255 255 255 255 255 255 255 255 255 128 
128 255 255 255 255 255 255 255 255 255 255 255 255 255 128 255 255 255 255 255 255 255 255 255 255 255 255 255 255 255 255 255 255 255 255 255 255 255 255 255 255 128 255 255 255 255 255 255 255 128 
128 255 255 255 255 255 255 255 255 1 255 255 255 255 255 255 255 255 255 255 255 255 1 255 255 255 255 255 255 255 255 128 255 255 2 128 255 255 255 255 255 255 255 255 2 255 255 255 255 128 
128 255 255 255 255 255 255 255 255 255 255 255 255 128 255 255 255 255 255 255 255 255 255 255 255 255 128 1 255 255 255 3 255 255 255 255 2 255 255 255 255 255 255 255 255 255 255 255 255 128 
128 255 255 255 1 255 255 255 255 255 255 255 255 128 255 255 255 255 255 1 255 255 255 255 255 3 255 255 255 255 255 255 3 255 255 255 255 255 255 255 255 255 255 255 255 255 128 255 255 128 
128 255 255 255 255 255 255 255 255 255 255 255 255 255 255 255 255 255 255 255 255 255 255 255 255 255 2 255 255 255 255 255 255 3 255 255 255 255 255 255 255 255 255 255 128 255 255 255 255 128 
128 255 255 255 255 255 255 255 255 255 255 255 255 255 255 255 255 255 255 255 255 255 255 255 255 255 255 1 255 255 3 4 255 255 255 255 255 255 255 255 255 255 255 255 255 255 128 255 255 128 
128 255 255 255 255 255 255 255 255 255 255 255 255 255 255 255 255 255 255 255 255 255 255 2 255 255 255 255 255 255 255 255 128 255 255 128 255 255 255 255 255 255 255 255 255 255 255 255 255 128 
128 255 255 255 255 255 255 255 255 255 255 255 255 255 255 255 255 255 255 255 255 255 255 255 255 255 255 255 255 255 255 255 128 255 255 255 255 128 255 255 255 255 255 255 255 255 255 255 255 128 
128 255 255 5 255 255 128 255 255 128 255 255 255 255 255 255 255 255 255 2 255 255 255 255 255 255 255 255 255 255 255 255 255 255 255 255 255 255 255 255 255 255 255 255 255 255 255 128 255 128 
128 255 255 255 255 255 255 255 255 255 255 255 255 255 255 255 255 255 255 255 255 255 255 255 255 255 255 255 255 3 255 1 255 255 255 255 255 255 255 255 255 255 255 255 255 255 255 255 255 128 
128 255 255 255 255 255 255 255 255 255 255 255 255 255 255 255 255 255 255 255 255 255 255 255 255 255 255 255 255 255 255 255 255 128 255 255 255 255 255 255 255 255 255 255 255 255 255 255 255 128 
128 255 255 255 255 255 4 255 255 255 255 255 255 255 255 255 255 255 255 255 255 255 255 255 255 255 255 255 255 255 255 255 255 255 3 255 255 255 128 255 255 128 255 255 255 255 255 255 255 128 
128 255 255 255 255 255 255 5 255 255 255 255 255 255 255 255 255 255 128 255 255 255 255 2 255 255 255 255 255 255 255 255 255 255 255 255 255 255 255 255 255 255 255 255 255 128 255 255 4 128 
128 255 255 255 128 255 255 255 255 255 255 255 255 255 255 255 255 255 255 255 255 255 255 255 255 255 255 255 255 255 1 255 255 255 2 255 255 255 255 255 3 128 255 255 255 255 255 255 255 128 
128 255 255 4 255 255 255 255 255 255 255 255 255 4 255 255 255 255 255 255 255 255 255 255 255 255 255 255 255 255 255 255 255 255 255 255 255 255 255 255 255 255 255 255 255 255 255 255 255 128 
128 255 128 255 255 255 255 255 255 255 255 255 255 255 255 255 255 255 255 5 255 255 255 255 255 3 255 255 255 255 255 255 255 255 255 4 255 255 255 255 255 255 255 255 255 128 255 255 255 128 
128 255 255 255 255 255 255 255 255 255 255 128 255 255 255 255 255 255 255 255 255 4 255 255 255 255 255 255 255 255 255 255 255 255 255 255 255 5 255 255 255 255 255 255 255 255 255 128 255 128 
128 255 255 255 255 255 255 255 255 255 255 255 255 255 255 255 255 255 255 255 255 255 255 255 255 255 255 255 255 128 255 255 255 255 255 255 255 255 255 255 255 255 255 255 255 255 255 255 255 128 
128 255 255 255 255 3 255 255 255 255 255 255 255 255 255 1 255 255 255 255 255 255 255 255 255 255 255 255 255 2 255 255 255 255 255 255 255 255 255 255 255 1 255 255 255 255 255 255 255 128 
128 255 255 255 255 255 255 255 255 255 255 255 255 255 255 255 255 255 128 255 255 255 255 255 255 255 255 255 255 255 255 255 255 255 255 255 255 255 255 255 255 255 255 255 255 255 255 255 255 128 
128 255 255 255 4 255 255 255 255 255 255 255 255 255 255 255 255 255 255 255 255 255 255 255 255 255 255 255 255 255 255 255 255 255 255 255 255 255 255 3 255 255 255 255 255 255 255 255 255 128 
128 255 255 255 255 255 255 255 255 255 255 255 255 255 255 128 4 255 255 255 255 255 255 255 255 255 255 255 255 255 1 255 255 255 255 255 255 128 255 255 128 255 255 255 255 255 255 255 255 128 
128 255 128 255 255 255 255 255 255 255 1 255 255 255 255 255 255 255 255 255 255 255 255 255 255 255 255 255 255 255 255 255 255 255 255 255 255 255 255 255 255 255 255 255 255 255 255 255 255 128 
128 255 255 4 255 255 255 255 255 255 255 255 255 255 255 255 255 255 255 255 255 3 255 255 255 255 255 255 255 2 255 255 255 255 255 255 255 255 255 255 255 255 255 255 255 255 255 255 255 128 
128 255 255 255 255 255 255 255 255 4 255 255 255 255 255 255 255 255 255 255 255 255 4 255 255 255 255 255 255 255 255 255 255 255 255 255 255 255 255 255 255 255 255 255 255 255 255 255 255 128 
128 255 255 255 255 255 255 255 255 255 255 255 255 255 255 255 255 255 255 255 255 255 255 255 255 255 255 255 255 255 255 255 255 255 255 255 255 255 255 255 128 255 255 255 255 255 255 255 255 128 
128 255 255 128 255 255 255 4 255 255 255 255 255 255 5 255 255 255 255 255 255 255 255 255 255 255 255 255 255 128 255 255 255 255 255 128 255 255 3 255 255 255 255 3 255 255 255 255 255 128 
128 2 255 2 255 255 255 255 255 255 255 255 255 255 255 255 255 255 255 255 1 255 255 255 255 255 255 255 255 255 255 255 255 128 255 255 255 255 255 255 255 255 255 255 255 255 255 128 255 128 
128 255 255 255 255 255 255 255 255 255 255 255 3 255 128 255 255 255 255 255 255 255 255 255 4 5 255 255 255 2 255 255 255 255 255 255 255 255 255 255 255 255 255 255 255 255 5 255 255 128 
128 255 255 255 255 255 255 255 255 255 255 255 255 255 255 255 255 255 255 255 255 255 255 255 255 255 5 255 128 255 255 255 128 255 255 255 255 255 2 255 255 255 255 255 255 255 255 255 255 128 
128 255 255 255 255 255 1 255 255 255 255 255 255 255 255 255 255 255 255 255 255 128 255 255 255 255 255 255 2 255 255 255 255 255 255 255 255 255 255 255 255 255 255 255 255 128 255 255 3 128 
128 255 255 255 2 255 255 255 255 255 255 255 255 255 255 255 255 255 255 255 255 255 4 128 255 255 255 255 255 255 255 255 255 255 255 255 255 255 255 255 255 255 255 255 255 255 255 255 255 128 
128 255 255 255 2 255 255 5 255 255 255 255 255 255 255 255 255 255 255 255 255 255 255 255 255 255 255 255 255 255 255 255 255 255 255 255 255 255 255 128 255 255 255 255 255 255 255 255 255 128 
128 255 255 255 255 255 255 255 255 255 255 255 255 255 255 255 255 255 255 255 255 128 255 255 255 255 255 255 255 255 255 255 255 255 255 255 128 255 128 255 255 255 255 255 255 255 255 255 255 128 
128 255 255 255 255 255 255 255 255 255 255 255 255 255 255 255 255 255 255 128 255 255 255 255 255 255 255 255 255 255 255 255 255 255 128 255 255 255 255 128 255 255 255 255 255 255 255 255 255 128 
128 255 255 255 255 255 255 255 255 255 255 255 255 255 255 255 255 255 255 255 255 255 255 255 255 255 255 255 255 255 255 128 255 255 255 128 255 255 255 255 255 255 255 255 255 255 255 255 255 128 
128 255 255 255 255 255 255 255 255 255 255 255 255 255 255 255 255 2 255 255 255 255 255 128 255 255 255 255 255 128 255 255 255 255 255 255 255 255 255 255 255 255 255 255 255 255 128 255 2 128 
128 255 255 255 255 255 255 255 255 255 255 255 255 255 255 255 255 255 255 255 255 255 255 255 255 255 255 255 255 255 255 255 255 4 255 255 255 255 255 255 255 255 255 255 255 255 255 255 255 128 
128 128 128 128 128 128 128 128 128 128 128 128 128 128 128 128 128 128 128 128 128 128 128 128 128 128 128 128 128 128 128 128 128 128 128 128 128 128 128 128 128 128 128 128 128 128 128 128 128 128 
